<svg width="32.5045" height="38.2496" overflow="visible" viewBox="0 0 32.5045 38.2496" fill="none" xmlns="http://www.w3.org/2000/svg">
<g id="icon">
<path id="Vector" d="M14.0397 25.8807C14.2064 26.118 14.3336 26.425 14.4245 26.7889C14.5348 27.2307 14.591 27.7402 14.6159 28.2753C14.6643 29.315 14.5948 30.3964 14.5895 31.2557C13.9554 31.7424 13.6943 32.3392 13.5114 32.9647C13.4022 33.3382 13.3213 33.708 13.2116 34.0819C13.1796 33.0384 13.1633 31.4877 13.2379 29.996C13.2897 28.9621 13.3842 27.964 13.5446 27.1854C13.6249 26.7956 13.7201 26.468 13.8307 26.2216C13.9001 26.067 13.9718 25.9566 14.0397 25.8807Z" fill="#FFFFFF" stroke="#FFFFFF" stroke-width="0.392157"/>
<g id="Exclude">
<path d="M8.74945 11.4752C12.2083 11.3901 13.2456 11.4558 16.8305 11.4752C21.3929 11.4996 22.131 15.2749 25.0219 17.1842C28.3946 20.5255 31.7675 19.0936 32.2494 21.4801C31.7676 23.8668 22.1314 21.4805 18.7582 18.1393C18.7583 20.0496 19.3963 31.3343 19.0327 35.404C18.9188 36.6678 18.2754 37.1759 17.2983 37.8248C16.0464 37.6498 15.7962 37.6817 14.7299 37.0934C14.4751 36.5537 14.4426 36.4513 14.0864 35.9821C13.161 36.6337 11.1991 38.994 10.019 37.528C8.09897 35.1428 8.09537 24.6768 8.14105 19.8317L8.15765 18.1393C6.71325 18.1393 5.7499 18.1389 5.268 18.6159C4.78618 19.0932 4.30452 19.094 3.82269 20.526C3.82256 21.4806 3.34027 22.4352 3.34027 22.4352C3.34031 24.8217 0.984008 25.9324 0.449645 24.3444C-0.0321584 22.9124 0.449277 18.6163 0.931091 17.1842C1.41284 15.7524 1.89465 15.2748 2.3764 14.7975C2.8582 14.3202 2.8586 14.3204 4.78558 13.3659C6.7128 12.4112 7.43576 11.7597 8.74945 11.4752ZM19.7221 13.3659C17.313 11.9339 11.5318 11.4562 7.67718 12.4108C7.67718 12.4108 4.78537 13.8428 3.82172 14.7975L1.89496 16.7067C1.89496 16.7067 0.931153 18.6163 0.931091 19.5709C0.930968 20.5258 -0.032314 25.2991 1.89496 24.3444C1.89496 24.3444 2.85854 22.9126 2.85882 22.4352C2.85885 21.958 2.98042 18.6159 4.30414 18.6159L6.23187 17.6618H8.64007C10.085 17.6641 8.08922 34.789 10.7983 36.7995C11.684 36.8481 11.6226 36.8214 12.3871 36.3571C12.7187 35.8319 12.8918 35.6373 13.0551 35.0416C13.7528 33.6437 13.5005 32.2775 14.7846 31.3561C14.7944 32.9366 14.3217 37.3701 17.0776 36.7311C19.5985 34.1275 17.4639 18.4696 18.2758 17.6618C19.0877 16.8574 20.6835 18.6131 20.686 18.6159C20.7065 18.6304 24.0655 21.0041 26.4672 21.4801C27.5713 21.6989 29.3583 22.912 31.2856 21.4801C31.2853 19.0937 25.9858 21.4802 19.7221 13.3659ZM16.395 14.6002C17.1991 14.5346 17.3301 14.4857 18.1342 14.6413C18.9704 15.9079 18.2111 16.7784 17.3823 17.8043C15.7122 19.8732 14.5044 19.0389 12.394 19.5495C11.632 20.3371 11.4985 20.7487 10.3803 20.6442L11.7778 19.3063C11.1296 18.3777 10.1677 17.1453 9.96722 16.0758C10.7365 15.0939 12.8877 16.5582 13.1879 16.3961C14.6972 15.5817 14.3984 15.1254 16.395 14.6002ZM11.019 16.4743C11.3678 18.0034 11.714 18.3099 13.2875 18.8131C13.2108 17.9646 13.2723 17.6196 12.6909 16.9997C11.9167 16.6424 11.9018 16.6031 11.019 16.4743ZM17.0307 15.2516C15.9024 15.5336 13.718 16.1485 14.0717 17.6022C14.5987 17.381 15.0518 17.1573 15.5639 16.9069L15.5287 17.1891L15.1928 17.4C14.7822 17.8254 14.4212 18.0179 14.4086 18.4577C15.7197 18.5643 17.0577 17.104 17.6342 16.0661L17.6616 15.567C17.2289 15.2342 17.4512 15.3099 17.0307 15.2516Z" fill="#FFFFFF"/>
<path d="M8.74945 11.4752L8.7433 11.2253L8.71966 11.2259L8.69654 11.2309L8.74945 11.4752ZM16.8305 11.4752L16.8291 11.7252L16.8292 11.7252L16.8305 11.4752ZM25.0219 17.1842L25.1979 17.0066L25.1803 16.9892L25.1597 16.9756L25.0219 17.1842ZM32.2494 21.4801L32.4945 21.5296L32.5045 21.4801L32.4945 21.4306L32.2494 21.4801ZM18.7582 18.1393L18.9342 17.9617L18.5082 17.5398L18.5082 18.1393L18.7582 18.1393ZM19.0327 35.404L19.2816 35.4264L19.2817 35.4262L19.0327 35.404ZM17.2983 37.8248L17.2637 38.0724L17.3576 38.0856L17.4366 38.0331L17.2983 37.8248ZM14.7299 37.0934L14.5039 37.2001L14.5384 37.2732L14.6092 37.3123L14.7299 37.0934ZM14.0864 35.9821L14.2855 35.8309L14.1396 35.6388L13.9424 35.7777L14.0864 35.9821ZM10.019 37.528L9.82424 37.6847L9.82424 37.6847L10.019 37.528ZM8.14105 19.8317L7.89106 19.8292L7.89106 19.8293L8.14105 19.8317ZM8.15765 18.1393L8.40764 18.1418L8.41012 17.8893H8.15765V18.1393ZM5.268 18.6159L5.09213 18.4382L5.09206 18.4383L5.268 18.6159ZM3.82269 20.526L3.58574 20.4463L3.5727 20.4851L3.57269 20.526L3.82269 20.526ZM3.34027 22.4352L3.11713 22.3225L3.09027 22.3756L3.09027 22.4352L3.34027 22.4352ZM0.449645 24.3444L0.212698 24.4241L0.2127 24.4241L0.449645 24.3444ZM0.931091 17.1842L0.694143 17.1045L0.694141 17.1045L0.931091 17.1842ZM2.3764 14.7975L2.55235 14.9751V14.9751L2.3764 14.7975ZM4.78558 13.3659L4.89655 13.5899V13.5899L4.78558 13.3659ZM19.7221 13.3659L19.92 13.2131L19.8909 13.1753L19.8498 13.151L19.7221 13.3659ZM7.67718 12.4108L7.61709 12.1681L7.59065 12.1747L7.56624 12.1868L7.67718 12.4108ZM3.82172 14.7975L3.64577 14.6199L3.64575 14.6199L3.82172 14.7975ZM1.89496 16.7067L1.71899 16.5291L1.6901 16.5577L1.67177 16.594L1.89496 16.7067ZM0.931091 19.5709L1.18109 19.571V19.571L0.931091 19.5709ZM1.89496 24.3444L2.00594 24.5684L2.06534 24.539L2.10236 24.484L1.89496 24.3444ZM2.85882 22.4352L3.10882 22.4353V22.4352L2.85882 22.4352ZM4.30414 18.6159L4.30414 18.8659L4.36262 18.8659L4.41503 18.8399L4.30414 18.6159ZM6.23187 17.6618V17.4118H6.17339L6.12098 17.4377L6.23187 17.6618ZM8.64007 17.6618L8.64049 17.4118H8.64007V17.6618ZM10.7983 36.7995L10.6493 37.0002L10.7096 37.045L10.7846 37.0491L10.7983 36.7995ZM12.3871 36.3571L12.5169 36.5708L12.5672 36.5402L12.5985 36.4905L12.3871 36.3571ZM13.0551 35.0416L12.8314 34.93L12.8205 34.9519L12.814 34.9755L13.0551 35.0416ZM14.7846 31.3561L15.0346 31.3545L15.0316 30.8712L14.6389 31.153L14.7846 31.3561ZM17.0776 36.7311L17.134 36.9746L17.2059 36.958L17.2572 36.905L17.0776 36.7311ZM18.2758 17.6618L18.0999 17.4842L18.0995 17.4845L18.2758 17.6618ZM20.686 18.6159L20.5009 18.7839L20.5193 18.8042L20.5416 18.82L20.686 18.6159ZM26.4672 21.4801L26.4186 21.7254L26.4186 21.7254L26.4672 21.4801ZM31.2856 21.4801L31.4347 21.6808L31.5356 21.6058L31.5356 21.4801L31.2856 21.4801ZM16.395 14.6002L16.3746 14.3511L16.3527 14.3529L16.3314 14.3585L16.395 14.6002ZM18.1342 14.6413L18.3428 14.5035L18.2849 14.4158L18.1817 14.3958L18.1342 14.6413ZM17.3823 17.8043L17.1878 17.6472L17.1877 17.6473L17.3823 17.8043ZM12.394 19.5495L12.3352 19.3065L12.2647 19.3235L12.2143 19.3756L12.394 19.5495ZM10.3803 20.6442L10.2074 20.4636L9.812 20.8422L10.3571 20.8931L10.3803 20.6442ZM11.7778 19.3063L11.9507 19.4869L12.1053 19.3388L11.9828 19.1632L11.7778 19.3063ZM9.96722 16.0758L9.77042 15.9217L9.70066 16.0107L9.7215 16.1219L9.96722 16.0758ZM13.1879 16.3961L13.0692 16.1761L13.0692 16.1762L13.1879 16.3961ZM11.019 16.4743L11.0551 16.2269L10.6941 16.1742L10.7752 16.5299L11.019 16.4743ZM13.2875 18.8131L13.2114 19.0512L13.5705 19.1661L13.5365 18.7906L13.2875 18.8131ZM12.6909 16.9997L12.8732 16.8286L12.8399 16.7931L12.7956 16.7727L12.6909 16.9997ZM17.0307 15.2516L17.0651 15.004L17.0171 14.9973L16.9701 15.0091L17.0307 15.2516ZM14.0717 17.6022L13.8288 17.6613L13.8981 17.9462L14.1685 17.8327L14.0717 17.6022ZM15.5639 16.9069L15.812 16.9378L15.8691 16.4794L15.4541 16.6823L15.5639 16.9069ZM15.5287 17.1891L15.6617 17.4008L15.7622 17.3377L15.7768 17.22L15.5287 17.1891ZM15.1928 17.4L15.0599 17.1883L15.0341 17.2045L15.0129 17.2264L15.1928 17.4ZM14.4086 18.4577L14.1587 18.4505L14.1519 18.6876L14.3884 18.7068L14.4086 18.4577ZM17.6342 16.0661L17.8528 16.1874L17.8807 16.1372L17.8838 16.0797L17.6342 16.0661ZM17.6616 15.567L17.9112 15.5807L17.9184 15.4492L17.814 15.3689L17.6616 15.567ZM8.74945 11.4752L8.7556 11.7252C12.2095 11.6402 13.238 11.7058 16.8291 11.7252L16.8305 11.4752L16.8319 11.2252C13.2532 11.2058 12.2071 11.1401 8.7433 11.2253L8.74945 11.4752ZM16.8305 11.4752L16.8292 11.7252C19.0208 11.7369 20.285 12.6407 21.371 13.7942C21.9283 14.3861 22.4127 15.0136 22.9762 15.6551C23.529 16.2846 24.1343 16.8976 24.8841 17.3928L25.0219 17.1842L25.1597 16.9756C24.4641 16.5162 23.893 15.9413 23.3518 15.3251C22.8212 14.721 22.2939 14.0451 21.735 13.4515C20.5887 12.2339 19.2026 11.2379 16.8318 11.2252L16.8305 11.4752ZM25.0219 17.1842L24.846 17.3618C26.5806 19.0803 28.3205 19.5712 29.6545 19.9316C30.3297 20.114 30.864 20.255 31.2656 20.4882C31.6453 20.7087 31.8992 21.0085 32.0044 21.5296L32.2494 21.4801L32.4945 21.4306C32.3588 20.7585 32.0103 20.3424 31.5166 20.0558C31.0449 19.7818 30.4347 19.6244 29.7849 19.4489C28.4688 19.0933 26.836 18.6295 25.1979 17.0066L25.0219 17.1842ZM32.2494 21.4801L32.0044 21.4307C31.9636 21.6328 31.8267 21.8021 31.5588 21.9348C31.2851 22.0704 30.8936 22.1564 30.398 22.1853C29.4093 22.2429 28.0815 22.0699 26.6482 21.715C23.7749 21.0035 20.5739 19.5858 18.9342 17.9617L18.7582 18.1393L18.5823 18.3169C20.3158 20.034 23.6195 21.4801 26.528 22.2003C27.9856 22.5613 29.3681 22.7462 30.4271 22.6844C30.9553 22.6536 31.4221 22.5605 31.7807 22.3829C32.1452 22.2023 32.4149 21.9241 32.4945 21.5296L32.2494 21.4801ZM18.7582 18.1393L18.5082 18.1393C18.5083 19.0993 18.6683 22.4117 18.782 25.9699C18.8962 29.5429 18.9639 33.3651 18.7836 35.3817L19.0327 35.404L19.2817 35.4262C19.4651 33.3732 19.3956 29.5182 19.2817 25.9539C19.1673 22.3748 19.0083 19.0896 19.0082 18.1393L18.7582 18.1393ZM19.0327 35.404L18.7837 35.3815C18.7307 35.9692 18.5578 36.3638 18.2951 36.6874C18.0247 37.0204 17.6499 37.2912 17.16 37.6166L17.2983 37.8248L17.4366 38.0331C17.9237 37.7095 18.3591 37.4018 18.6832 37.0025C19.015 36.5939 19.2207 36.1025 19.2816 35.4264L19.0327 35.404ZM17.2983 37.8248L17.3329 37.5773C16.6915 37.4876 16.3402 37.4547 16.0047 37.3714C15.6822 37.2914 15.3747 37.1636 14.8507 36.8745L14.7299 37.0934L14.6092 37.3123C15.1514 37.6115 15.5021 37.7619 15.8843 37.8567C16.2535 37.9484 16.6532 37.9871 17.2637 38.0724L17.2983 37.8248ZM14.7299 37.0934L14.956 36.9867C14.7 36.4445 14.6584 36.3221 14.2855 35.8309L14.0864 35.9821L13.8873 36.1333C14.2269 36.5805 14.2502 36.6629 14.5039 37.2001L14.7299 37.0934ZM14.0864 35.9821L13.9424 35.7777C13.6971 35.9504 13.3854 36.2343 13.0621 36.5163C12.7303 36.8057 12.3729 37.1057 12.0123 37.3393C11.6479 37.5754 11.3062 37.7262 11.0049 37.7471C10.7239 37.7666 10.4586 37.6754 10.2137 37.3712L10.019 37.528L9.82424 37.6847C10.1695 38.1136 10.5919 38.277 11.0396 38.2459C11.467 38.2162 11.8949 38.0112 12.2842 37.7589C12.6772 37.5043 13.0575 37.1837 13.3907 36.8931C13.7324 36.5951 14.0129 36.3395 14.2303 36.1865L14.0864 35.9821ZM10.019 37.528L10.2137 37.3712C9.77607 36.8275 9.42402 35.7819 9.15457 34.3905C8.88776 33.0128 8.70961 31.3411 8.59233 29.5856C8.35782 26.0756 8.36821 22.256 8.39104 19.834L8.14105 19.8317L7.89106 19.8293C7.86822 22.2524 7.85756 26.0884 8.09344 29.619C8.21135 31.3838 8.39124 33.0787 8.66369 34.4856C8.93348 35.8787 9.30189 37.0358 9.82424 37.6847L10.019 37.528ZM8.14105 19.8317L8.39104 19.8341L8.40764 18.1418L8.15765 18.1393L7.90767 18.1368L7.89106 19.8292L8.14105 19.8317ZM8.15765 18.1393V17.8893C7.44119 17.8893 6.82158 17.8888 6.32123 17.9506C5.82309 18.0121 5.39303 18.1403 5.09213 18.4382L5.268 18.6159L5.44388 18.7935C5.62488 18.6144 5.91743 18.5043 6.38255 18.4468C6.84544 18.3896 7.42971 18.3893 8.15765 18.3893V18.1393ZM5.268 18.6159L5.09206 18.4383C4.98586 18.5435 4.87902 18.6233 4.75747 18.7137C4.63808 18.8025 4.50403 18.9018 4.36931 19.0354C4.09311 19.3093 3.83508 19.7053 3.58574 20.4463L3.82269 20.526L4.05964 20.6057C4.29213 19.9148 4.51585 19.5943 4.72139 19.3905C4.82754 19.2852 4.93436 19.2053 5.05586 19.1149C5.17519 19.0262 5.30924 18.9269 5.44395 18.7935L5.268 18.6159ZM3.82269 20.526L3.57269 20.526C3.57263 20.9651 3.46088 21.4133 3.34451 21.7588C3.28684 21.93 3.2292 22.0725 3.18622 22.1718C3.16476 22.2213 3.14702 22.2599 3.13487 22.2857C3.1288 22.2986 3.12413 22.3082 3.12109 22.3144C3.11958 22.3175 3.11847 22.3198 3.1178 22.3211C3.11746 22.3218 3.11724 22.3223 3.11712 22.3225C3.11707 22.3226 3.11704 22.3226 3.11704 22.3226C3.11704 22.3226 3.11705 22.3226 3.11706 22.3226C3.11707 22.3226 3.11709 22.3226 3.11709 22.3225C3.11711 22.3225 3.11713 22.3225 3.34027 22.4352C3.56341 22.5479 3.56343 22.5479 3.56346 22.5478C3.56347 22.5478 3.5635 22.5478 3.56352 22.5477C3.56356 22.5476 3.56362 22.5475 3.56367 22.5474C3.56379 22.5472 3.56394 22.5469 3.56412 22.5465C3.56447 22.5458 3.56493 22.5449 3.56551 22.5437C3.56667 22.5414 3.56826 22.5382 3.57028 22.5341C3.57431 22.5258 3.58 22.514 3.58712 22.4989C3.60134 22.4688 3.62129 22.4253 3.64504 22.3705C3.69249 22.2609 3.75543 22.1052 3.81835 21.9184C3.94317 21.5479 4.07262 21.0415 4.07269 20.5261L3.82269 20.526ZM3.34027 22.4352L3.09027 22.4352C3.09029 23.5467 2.5426 24.3344 1.97065 24.6636C1.68355 24.8288 1.40814 24.8701 1.19341 24.8107C0.98909 24.7542 0.797837 24.5953 0.686591 24.2647L0.449645 24.3444L0.2127 24.4241C0.368635 24.8875 0.672306 25.1853 1.06008 25.2926C1.43744 25.397 1.8513 25.3092 2.22007 25.0969C2.95984 24.6712 3.59029 23.7103 3.59027 22.4352L3.34027 22.4352ZM0.449645 24.3444L0.686593 24.2647C0.578669 23.9439 0.518748 23.4382 0.503783 22.8169C0.488968 22.2018 0.518466 21.4952 0.578133 20.7853C0.698032 19.3588 0.936935 17.9509 1.16804 17.2639L0.931091 17.1842L0.694141 17.1045C0.443433 17.8497 0.200711 19.3059 0.0798898 20.7434C0.0191972 21.4655 -0.0114394 22.1909 0.00392763 22.8289C0.0191435 23.4606 0.0797196 24.0289 0.212698 24.4241L0.449645 24.3444ZM0.931091 17.1842L1.16804 17.2639C1.40349 16.5642 1.63541 16.108 1.86117 15.7725C2.08688 15.437 2.31175 15.2135 2.55235 14.9751L2.3764 14.7975L2.20046 14.6199C1.9593 14.8588 1.7024 15.1127 1.44632 15.4934C1.19031 15.8739 0.940447 16.3725 0.694143 17.1045L0.931091 17.1842ZM2.3764 14.7975L2.55235 14.9751C2.78952 14.7401 2.89256 14.6385 3.16673 14.4756C3.45744 14.3029 3.92757 14.0699 4.89655 13.5899L4.78558 13.3659L4.67461 13.1418C3.71661 13.6164 3.22305 13.8605 2.91137 14.0457C2.58315 14.2407 2.44509 14.3775 2.20045 14.6199L2.3764 14.7975ZM4.78558 13.3659L4.89655 13.5899C5.86482 13.1103 6.54333 12.7 7.11678 12.389C7.6932 12.0763 8.1786 11.8546 8.80236 11.7196L8.74945 11.4752L8.69654 11.2309C8.0066 11.3803 7.47368 11.6266 6.87839 11.9495C6.28014 12.274 5.63356 12.6668 4.67461 13.1418L4.78558 13.3659ZM19.7221 13.3659L19.8498 13.151C18.5956 12.4054 16.5018 11.9242 14.2617 11.7442C12.0143 11.5635 9.57717 11.6827 7.61709 12.1681L7.67718 12.4108L7.73728 12.6535C9.6318 12.1843 12.0126 12.065 14.2217 12.2426C16.4382 12.4207 18.4395 12.8943 19.5944 13.5808L19.7221 13.3659ZM7.67718 12.4108C7.56624 12.1868 7.56622 12.1868 7.56618 12.1868C7.56615 12.1868 7.5661 12.1868 7.56605 12.1868C7.56594 12.1869 7.56579 12.187 7.5656 12.1871C7.56521 12.1873 7.56464 12.1875 7.56391 12.1879C7.56243 12.1886 7.56027 12.1897 7.55744 12.1911C7.55178 12.1939 7.54343 12.1981 7.53255 12.2036C7.5108 12.2144 7.4789 12.2305 7.43804 12.2512C7.35634 12.2926 7.23875 12.3527 7.09472 12.4278C6.80678 12.5779 6.41255 12.7881 5.98768 13.0286C5.14829 13.5036 4.155 14.1154 3.64577 14.6199L3.82172 14.7975L3.99766 14.9751C4.45208 14.5249 5.38653 13.9433 6.23396 13.4637C6.6525 13.2268 7.04145 13.0194 7.32584 12.8711C7.46798 12.7971 7.58384 12.7378 7.66405 12.6972C7.70414 12.6769 7.73532 12.6612 7.75639 12.6507C7.76693 12.6454 7.77494 12.6414 7.78028 12.6387C7.78295 12.6374 7.78495 12.6364 7.78626 12.6357C7.78692 12.6354 7.78741 12.6352 7.78772 12.635C7.78787 12.6349 7.78799 12.6349 7.78805 12.6349C7.78809 12.6348 7.78811 12.6348 7.78812 12.6348C7.78813 12.6348 7.78813 12.6348 7.67718 12.4108ZM3.82172 14.7975L3.64575 14.6199L1.71899 16.5291L1.89496 16.7067L2.07092 16.8843L3.99768 14.9751L3.82172 14.7975ZM1.89496 16.7067C1.67177 16.594 1.67176 16.5941 1.67174 16.5941C1.67173 16.5941 1.67171 16.5942 1.67169 16.5942C1.67164 16.5943 1.67158 16.5944 1.67151 16.5946C1.67136 16.5949 1.67116 16.5953 1.6709 16.5958C1.67037 16.5968 1.66962 16.5983 1.66865 16.6003C1.6667 16.6042 1.66387 16.6098 1.66021 16.6172C1.65289 16.6319 1.64227 16.6535 1.62881 16.6811C1.6019 16.7363 1.56361 16.816 1.51775 16.9144C1.42611 17.1111 1.30377 17.3837 1.18123 17.6872C1.05891 17.9901 0.935092 18.3269 0.841515 18.6514C0.749048 18.9719 0.681108 19.297 0.681091 19.5709L0.931091 19.5709L1.18109 19.571C1.1811 19.3675 1.23366 19.0959 1.32193 18.7899C1.40908 18.4878 1.52623 18.1682 1.64486 17.8744C1.76328 17.5811 1.8819 17.3167 1.97097 17.1256C2.01547 17.0301 2.05249 16.9531 2.07828 16.9001C2.09117 16.8737 2.10126 16.8532 2.10806 16.8395C2.11146 16.8327 2.11404 16.8275 2.11574 16.8241C2.11659 16.8224 2.11722 16.8212 2.11762 16.8204C2.11782 16.82 2.11797 16.8197 2.11805 16.8195C2.1181 16.8194 2.11813 16.8194 2.11814 16.8193C2.11815 16.8193 2.11815 16.8193 2.11815 16.8193C2.11815 16.8193 2.11814 16.8193 1.89496 16.7067ZM0.931091 19.5709L0.681091 19.5709C0.681062 19.792 0.623848 20.2454 0.562019 20.8275C0.501709 21.3953 0.440214 22.0629 0.440251 22.6738C0.440288 23.2706 0.497665 23.8665 0.712279 24.2562C0.824787 24.4605 0.993501 24.6313 1.23743 24.6946C1.47549 24.7563 1.73546 24.7024 2.00594 24.5684L1.89496 24.3444L1.78398 24.1204C1.57264 24.2251 1.44112 24.2308 1.36297 24.2106C1.29068 24.1918 1.21846 24.1389 1.15026 24.015C1.00345 23.7484 0.940288 23.2703 0.940251 22.6738C0.940215 22.0913 0.999109 21.4462 1.05922 20.8803C1.11782 20.3287 1.18106 19.8273 1.18109 19.571L0.931091 19.5709ZM1.89496 24.3444C2.10236 24.484 2.10238 24.4839 2.10239 24.4839C2.1024 24.4839 2.10243 24.4839 2.10245 24.4838C2.10249 24.4838 2.10255 24.4837 2.10262 24.4836C2.10277 24.4834 2.10297 24.4831 2.10323 24.4827C2.10375 24.4819 2.1045 24.4808 2.10547 24.4793C2.10741 24.4764 2.11024 24.4722 2.11389 24.4667C2.1212 24.4557 2.13182 24.4397 2.14527 24.4193C2.17217 24.3783 2.21045 24.3196 2.25632 24.2476C2.34794 24.1039 2.47046 23.9067 2.59333 23.6938C2.71573 23.4816 2.84087 23.2496 2.93618 23.0373C3.02576 22.8377 3.10872 22.6142 3.10882 22.4353L2.85882 22.4352L2.60882 22.4351C2.60879 22.495 2.57119 22.6294 2.48002 22.8326C2.39458 23.0229 2.27878 23.2384 2.16024 23.4439C2.04218 23.6485 1.92379 23.8391 1.83473 23.9788C1.79026 24.0485 1.75326 24.1054 1.72746 24.1446C1.71456 24.1642 1.70447 24.1794 1.69767 24.1897C1.69426 24.1948 1.69168 24.1986 1.68997 24.2012C1.68912 24.2025 1.68849 24.2034 1.68808 24.204C1.68788 24.2043 1.68773 24.2045 1.68764 24.2047C1.6876 24.2047 1.68757 24.2048 1.68756 24.2048C1.68755 24.2048 1.68755 24.2048 1.68754 24.2048C1.68755 24.2048 1.68755 24.2048 1.89496 24.3444ZM2.85882 22.4352L3.10882 22.4352C3.10884 22.2058 3.1388 21.2708 3.32932 20.4C3.42499 19.9627 3.55696 19.5621 3.73274 19.2766C3.90846 18.9913 4.09719 18.8659 4.30414 18.8659L4.30414 18.6159L4.30413 18.3659C3.84923 18.3659 3.52636 18.6582 3.30699 19.0144C3.08769 19.3706 2.94106 19.8352 2.84087 20.2931C2.63967 21.2128 2.60884 22.1874 2.60882 22.4352L2.85882 22.4352ZM4.30414 18.6159L4.41503 18.8399L6.34277 17.8858L6.23187 17.6618L6.12098 17.4377L4.19324 18.3918L4.30414 18.6159ZM6.23187 17.6618V17.9118H8.64007V17.6618V17.4118H6.23187V17.6618ZM8.64007 17.6618L8.63966 17.9118C8.58504 17.9117 8.59758 17.8677 8.65076 17.9701C8.69919 18.0635 8.74778 18.2199 8.79086 18.4486C8.87613 18.9012 8.9269 19.5622 8.95605 20.3792C9.01429 22.0113 8.98493 24.2048 8.99512 26.4787C9.00527 28.7453 9.05484 31.0866 9.27299 32.9898C9.38202 33.941 9.53418 34.7926 9.7485 35.4749C9.95974 36.1474 10.2445 36.6998 10.6493 37.0002L10.7983 36.7995L10.9473 36.5987C10.6748 36.3965 10.4293 35.9739 10.2255 35.3251C10.0248 34.6861 9.87715 33.8699 9.76974 32.9329C9.55502 31.0597 9.50526 28.7427 9.49511 26.4765C9.48499 24.2176 9.51433 22.0037 9.45574 20.3614C9.42647 19.5412 9.37494 18.8482 9.28222 18.356C9.2363 18.1123 9.17696 17.8986 9.09456 17.7398C9.01691 17.5902 8.87572 17.4122 8.64049 17.4118L8.64007 17.6618ZM10.7983 36.7995L10.7846 37.0491C11.2141 37.0727 11.4693 37.084 11.7116 37.0096C11.8338 36.9721 11.9446 36.9158 12.0663 36.8452C12.1843 36.7768 12.3326 36.6827 12.5169 36.5708L12.3871 36.3571L12.2574 36.1434C12.0594 36.2636 11.9287 36.347 11.8155 36.4127C11.7061 36.4761 11.6335 36.5106 11.5648 36.5316C11.4252 36.5745 11.2683 36.5749 10.812 36.5498L10.7983 36.7995ZM12.3871 36.3571L12.5985 36.4905C12.9214 35.9792 13.1207 35.7479 13.2962 35.1077L13.0551 35.0416L12.814 34.9755C12.6629 35.5267 12.516 35.6847 12.1758 36.2236L12.3871 36.3571ZM13.0551 35.0416L13.2788 35.1533C13.6408 34.4279 13.7661 33.6848 13.9399 33.0903C14.1172 32.4841 14.353 31.9735 14.9304 31.5592L14.7846 31.3561L14.6389 31.153C13.9322 31.6601 13.652 32.2934 13.46 32.95C13.2646 33.6184 13.1671 34.2575 12.8314 34.93L13.0551 35.0416ZM14.7846 31.3561L14.5346 31.3577C14.5393 32.1142 14.4226 33.6664 14.6555 34.9215C14.7723 35.5508 14.9838 36.1541 15.3795 36.5581C15.7935 36.9807 16.3745 37.1508 17.134 36.9746L17.0776 36.7311L17.0211 36.4876C16.4028 36.6309 16.0094 36.4865 15.7366 36.2081C15.4456 35.9111 15.2579 35.4271 15.1472 34.8303C14.925 33.6333 15.0397 32.1785 15.0346 31.3545L14.7846 31.3561ZM17.0776 36.7311L17.2572 36.905C17.6165 36.5339 17.8727 35.9552 18.0608 35.2629C18.2506 34.5644 18.3789 33.7201 18.4631 32.7893C18.6316 30.9273 18.6261 28.6887 18.5675 26.5163C18.5382 25.4292 18.4955 24.3564 18.4544 23.3537C18.4132 22.3502 18.3737 21.418 18.3505 20.6089C18.3272 19.7985 18.3206 19.1185 18.3443 18.6182C18.3563 18.3673 18.3755 18.1694 18.4021 18.026C18.4154 17.9542 18.4294 17.9024 18.4424 17.8673C18.4568 17.8286 18.4638 17.8274 18.4522 17.839L18.2758 17.6618L18.0995 17.4845C18.0371 17.5466 17.9991 17.625 17.9738 17.6931C17.9471 17.7647 17.9267 17.847 17.9104 17.9349C17.8778 18.1109 17.8572 18.3347 17.8449 18.5944C17.8202 19.1152 17.8274 19.8114 17.8507 20.6232C17.874 21.4363 17.9137 22.3724 17.9548 23.3742C17.9959 24.3768 18.0385 25.4465 18.0677 26.5298C18.1262 28.6983 18.1309 30.9128 17.9652 32.7442C17.8823 33.6601 17.7575 34.4725 17.5783 35.1318C17.3975 35.7972 17.1689 36.2774 16.898 36.5572L17.0776 36.7311ZM18.2758 17.6618L18.4518 17.8394C18.5809 17.7114 18.7408 17.6763 18.9467 17.7165C19.1624 17.7586 19.4053 17.8815 19.6443 18.0432C20.1195 18.3647 20.5029 18.7861 20.5009 18.7839L20.686 18.6159L20.8711 18.4478C20.8666 18.4429 20.4508 17.9851 19.9245 17.6291C19.6628 17.452 19.3544 17.2867 19.0425 17.2257C18.7207 17.1629 18.3767 17.2099 18.0999 17.4842L18.2758 17.6618ZM20.686 18.6159L20.5416 18.82C20.5552 18.8296 21.4072 19.4316 22.5594 20.0918C23.7048 20.7483 25.175 21.4789 26.4186 21.7254L26.4672 21.4801L26.5158 21.2349C25.3577 21.0054 23.9476 20.3111 22.808 19.658C21.675 19.0088 20.8373 18.4167 20.8303 18.4117L20.686 18.6159ZM26.4672 21.4801L26.4186 21.7254C26.6731 21.7758 26.97 21.8844 27.3331 22.01C27.6872 22.1326 28.0897 22.2655 28.5225 22.345C29.3991 22.506 30.4027 22.4475 31.4347 21.6808L31.2856 21.4801L31.1365 21.2794C30.2412 21.9446 29.3876 21.9955 28.6129 21.8532C28.2201 21.7811 27.8483 21.6592 27.4966 21.5375C27.1539 21.4189 26.8134 21.2939 26.5158 21.2349L26.4672 21.4801ZM31.2856 21.4801L31.5356 21.4801C31.5355 21.1301 31.4362 20.8451 31.2334 20.6142C31.0381 20.3917 30.7639 20.2395 30.4526 20.1146C30.1407 19.9894 29.7639 19.8814 29.3465 19.763C28.9249 19.6434 28.453 19.5108 27.933 19.3342C25.8668 18.6324 23.0188 17.2274 19.92 13.2131L19.7221 13.3659L19.5242 13.5186C22.6891 17.6186 25.6227 19.0775 27.7722 19.8077C28.3062 19.989 28.7903 20.125 29.21 20.244C29.6339 20.3643 29.9836 20.4651 30.2664 20.5786C30.5499 20.6923 30.7387 20.8086 30.8577 20.9441C30.9693 21.0711 31.0356 21.2336 31.0356 21.4801L31.2856 21.4801ZM16.395 14.6002L16.4153 14.8494C16.8308 14.8155 17.0447 14.7887 17.2657 14.7878C17.4761 14.7869 17.6919 14.8103 18.0867 14.8867L18.1342 14.6413L18.1817 14.3958C17.7725 14.3166 17.5207 14.2867 17.2635 14.2878C17.0169 14.2888 16.7632 14.3193 16.3746 14.3511L16.395 14.6002ZM18.1342 14.6413L17.9256 14.779C18.1175 15.0698 18.2099 15.3254 18.2379 15.5557C18.2657 15.7852 18.2314 16.0043 18.1485 16.2253C17.9772 16.6827 17.6128 17.1212 17.1878 17.6472L17.3823 17.8043L17.5767 17.9614C17.9806 17.4615 18.4103 16.9518 18.6167 16.4008C18.7228 16.1176 18.7733 15.8174 18.7342 15.4955C18.6953 15.1743 18.569 14.8461 18.3428 14.5035L18.1342 14.6413ZM17.3823 17.8043L17.1877 17.6473C16.7846 18.1467 16.4184 18.4598 16.0698 18.6617C15.7226 18.8628 15.3812 18.9604 15.0169 19.0139C14.6439 19.0688 14.2635 19.0761 13.8141 19.1028C13.3717 19.129 12.8837 19.1738 12.3352 19.3065L12.394 19.5495L12.4528 19.7924C12.9595 19.6699 13.4139 19.6274 13.8437 19.6019C14.2665 19.5768 14.6881 19.5676 15.0896 19.5086C15.4999 19.4483 15.9055 19.3347 16.3204 19.0944C16.7339 18.8549 17.1449 18.4965 17.5768 17.9614L17.3823 17.8043ZM12.394 19.5495L12.2143 19.3756C12.0224 19.574 11.8615 19.7578 11.7319 19.8974C11.5969 20.0428 11.4886 20.1485 11.3771 20.2267C11.174 20.3692 10.9276 20.4442 10.4036 20.3953L10.3803 20.6442L10.3571 20.8931C10.9512 20.9486 11.3306 20.8701 11.6643 20.636C11.8212 20.526 11.9591 20.3876 12.0983 20.2376C12.243 20.0818 12.3846 19.9188 12.5737 19.7233L12.394 19.5495ZM10.3803 20.6442L10.5532 20.8248L11.9507 19.4869L11.7778 19.3063L11.6049 19.1257L10.2074 20.4636L10.3803 20.6442ZM11.7778 19.3063L11.9828 19.1632C11.6526 18.6902 11.2588 18.1623 10.917 17.612C10.5745 17.0608 10.3044 16.5175 10.2129 16.0298L9.96722 16.0758L9.7215 16.1219C9.83058 16.7037 10.1416 17.3114 10.4923 17.8758C10.8435 18.4412 11.2548 18.9938 11.5728 19.4494L11.7778 19.3063ZM9.96722 16.0758L10.164 16.23C10.2945 16.0634 10.4885 15.9872 10.7554 15.9844C11.0281 15.9815 11.347 16.0569 11.6747 16.1658C12.0028 16.2748 12.3092 16.4062 12.5759 16.5095C12.7044 16.5593 12.8283 16.6043 12.9334 16.6309C12.9859 16.6443 13.0427 16.6554 13.0986 16.6582C13.15 16.6607 13.2296 16.6578 13.3067 16.6161L13.1879 16.3961L13.0692 16.1762C13.1088 16.1548 13.1363 16.1594 13.1229 16.1588C13.1139 16.1583 13.093 16.1556 13.0564 16.1463C12.9834 16.1278 12.884 16.0926 12.7565 16.0433C12.5114 15.9483 12.1756 15.8053 11.8323 15.6913C11.4884 15.577 11.1066 15.4806 10.7501 15.4844C10.3879 15.4883 10.0246 15.5972 9.77042 15.9217L9.96722 16.0758ZM13.1879 16.3961L13.3067 16.6161C14.0854 16.1959 14.4179 15.8536 14.7618 15.5874C15.0936 15.3304 15.4858 15.0979 16.4585 14.842L16.395 14.6002L16.3314 14.3585C15.3076 14.6277 14.8509 14.8859 14.4556 15.192C14.0724 15.4888 13.7997 15.7819 13.0692 16.1761L13.1879 16.3961ZM11.019 16.4743L10.7752 16.5299C10.9507 17.2988 11.1361 17.8196 11.5162 18.2041C11.8914 18.5838 12.4283 18.8008 13.2114 19.0512L13.2875 18.8131L13.3637 18.575C12.5733 18.3222 12.1503 18.1344 11.8718 17.8527C11.5982 17.5759 11.4361 17.1788 11.2627 16.4187L11.019 16.4743ZM13.2875 18.8131L13.5365 18.7906C13.5006 18.3938 13.4942 18.0551 13.4211 17.7605C13.3417 17.4402 13.1861 17.1623 12.8732 16.8286L12.6909 16.9997L12.5085 17.1707C12.777 17.457 12.8814 17.6615 12.9358 17.8809C12.9966 18.1259 12.9977 18.384 13.0386 18.8356L13.2875 18.8131ZM12.6909 16.9997L12.7956 16.7727C12.42 16.5993 12.203 16.4905 11.975 16.4142C11.7407 16.3358 11.4961 16.2912 11.0551 16.2269L11.019 16.4743L10.9829 16.7216C11.4247 16.7861 11.629 16.8256 11.8163 16.8883C12.0101 16.9532 12.1875 17.0427 12.5861 17.2266L12.6909 16.9997ZM17.0307 15.2516L16.9701 15.0091C16.4074 15.1497 15.5475 15.3807 14.8706 15.7709C14.5314 15.9665 14.219 16.2126 14.0164 16.5253C13.8082 16.8466 13.7233 17.2278 13.8288 17.6613L14.0717 17.6022L14.3146 17.5431C14.2433 17.2498 14.2988 17.0089 14.436 16.7972C14.5787 16.577 14.8166 16.3792 15.1204 16.2041C15.7294 15.853 16.5257 15.6355 17.0913 15.4941L17.0307 15.2516ZM14.0717 17.6022L14.1685 17.8327C14.7033 17.6082 15.1631 17.3811 15.6737 17.1315L15.5639 16.9069L15.4541 16.6823C14.9405 16.9334 14.4941 17.1537 13.9749 17.3717L14.0717 17.6022ZM15.5639 16.9069L15.3158 16.876L15.2807 17.1582L15.5287 17.1891L15.7768 17.22L15.812 16.9378L15.5639 16.9069ZM15.5287 17.1891L15.3958 16.9774L15.0599 17.1883L15.1928 17.4L15.3258 17.6118L15.6617 17.4008L15.5287 17.1891ZM15.1928 17.4L15.0129 17.2264C14.916 17.3268 14.8216 17.414 14.7293 17.4992C14.6392 17.5823 14.5471 17.6673 14.4671 17.7546C14.301 17.936 14.1674 18.1489 14.1587 18.4505L14.4086 18.4577L14.6585 18.4648C14.6625 18.3266 14.7157 18.2234 14.8358 18.0923C14.899 18.0233 14.9749 17.9529 15.0684 17.8666C15.1597 17.7823 15.2643 17.6859 15.3727 17.5737L15.1928 17.4ZM14.4086 18.4577L14.3884 18.7068C15.1409 18.768 15.8677 18.3805 16.4581 17.8821C17.0541 17.3791 17.5513 16.7301 17.8528 16.1874L17.6342 16.0661L17.4157 15.9447C17.1406 16.44 16.6806 17.0401 16.1356 17.5C15.5852 17.9646 14.9874 18.2539 14.4289 18.2085L14.4086 18.4577ZM17.6342 16.0661L17.8838 16.0797L17.9112 15.5807L17.6616 15.567L17.4119 15.5534L17.3846 16.0524L17.6342 16.0661ZM17.6616 15.567L17.814 15.3689C17.711 15.2897 17.6479 15.2354 17.6039 15.1971C17.5691 15.1667 17.5196 15.1209 17.4681 15.0907C17.3994 15.0505 17.3347 15.0387 17.2805 15.0311C17.2546 15.0275 17.2229 15.0239 17.1903 15.02C17.1561 15.0159 17.1154 15.011 17.0651 15.004L17.0307 15.2516L16.9963 15.4992C17.0512 15.5068 17.0955 15.5123 17.1313 15.5165C17.1687 15.521 17.1921 15.5236 17.2112 15.5263C17.2471 15.5313 17.2327 15.5323 17.2151 15.522C17.2147 15.5218 17.217 15.5231 17.2753 15.5739C17.3245 15.6169 17.3958 15.678 17.5091 15.7652L17.6616 15.567Z" fill="#FFFFFF"/>
</g>
<path id="Vector_2" d="M15.0407 0.835938C17.5322 0.353066 19.9316 1.94683 20.4197 4.36621C20.9067 6.78177 19.3128 9.14704 16.8239 9.63574C14.3305 10.1222 11.9251 8.52657 11.4372 6.10547C10.9501 3.68745 12.5487 1.31814 15.0407 0.835938Z" stroke="#FFFFFF" stroke-width="1.5"/>
</g>
</svg>
