<svg width="31.1311" height="36" viewBox="0 0 31.1311 36" fill="none" xmlns="http://www.w3.org/2000/svg">
<g id="icon">
<path id="Vector" d="M13.1611 0.155344C13.1998 0.141465 13.2407 0.132478 13.2816 0.128637C15.2379 -0.0552337 16.6753 -0.145049 18.5649 0.593814C20.8935 1.51478 22.734 3.35034 23.6483 5.66489C25.0482 9.14124 24.0054 13.0947 21.2768 15.8032C20.5941 16.4795 18.5614 16.9583 17.8412 17.8269C17.7096 17.9856 17.7641 18.2026 17.9523 18.2867C19.0415 18.7734 22.534 19.5934 24.5411 20.9231C27.8435 23.0929 30.1006 26.5122 30.7887 30.3814C31.9554 36.6511 30.1911 35.9549 24.6959 35.9579C21.9197 35.9595 20.1078 36.0245 17.422 35.8531C17.1787 35.8376 16.9843 35.6468 16.9349 35.4081C16.6917 34.2336 15.9588 32.7866 15.7722 31.5775C15.7321 31.3177 15.9334 31.0959 16.1943 31.0639C20.2369 30.569 21.3217 28.6064 22.2054 25.0381C22.2869 24.7089 22.0187 24.3984 21.6809 24.4279C19.6995 24.6012 18.6126 24.773 16.7698 25.9566C16.7323 25.9807 16.6968 26.0111 16.6674 26.0447C15.8174 27.0152 15.9807 27.3466 15.3991 28.0852C15.324 28.1805 15.2115 28.2493 15.0915 28.2317C14.5905 28.1583 14.3972 27.4553 13.7507 26.8655C12.6229 25.836 11.1494 25.4426 9.70331 25.1058C9.34182 25.0217 9.01661 25.3491 9.10782 25.7089C9.91674 28.8997 10.8188 30.3992 14.3798 31.0387C14.6203 31.0818 14.8 31.2873 14.8095 31.5315C14.8625 32.8982 15.06 34.0255 15.0205 35.3907C15.0133 35.6397 14.8195 35.8383 14.5707 35.8522C11.7431 36.0097 2.79435 36.1633 0.972676 35.6226C0.913254 35.605 0.864356 35.5754 0.81967 35.5324C-1.11612 33.6716 0.820102 27.1533 2.08162 25.2426C4.65794 21.3361 10.9271 19.2018 12.9476 18.3875C13.2642 18.2599 13.2507 17.9347 12.9474 17.7783C11.4481 17.0049 8.23934 15.1346 7.07208 12.079C5.04401 6.77227 7.98556 2.01471 13.1611 0.155344Z" fill="#555F3B"/>
<path id="Vector_2" d="M10.2555 26.2144C11.9245 26.6272 13.0888 26.8749 13.0269 28.8036L13.8912 29.6113L13.6888 29.9057C11.896 30.0207 10.6959 27.6509 10.2555 26.2144Z" fill="#555F3B"/>
<path id="Vector_3" d="M19.3483 26.6475L19.9388 26.1207C20.3483 26.4277 20.1817 26.2394 20.4364 26.687L20.5317 26.7429C19.8483 28.8268 19.0078 29.2875 16.9983 29.881L16.7626 29.7291C17.5078 28.3573 18.6769 28.0878 19.3483 26.6475Z" fill="#555F3B"/>
<path id="Vector_4" d="M15.7079 29.0849C16.6364 27.5751 18.7483 25.1904 20.7388 25.8242C20.7602 26.4007 20.8007 26.2035 20.5317 26.7429L20.4364 26.6869C20.1817 26.2394 20.3483 26.4276 19.9388 26.1206L19.3483 26.6475C17.665 27.3382 17.0793 27.8965 15.7079 29.0849Z" fill="#555F3B"/>
</g>
</svg>
